<?xml version="1.0" encoding="UTF-8" standalone="no"?>
<!DOCTYPE svg PUBLIC "-//W3C//DTD SVG 1.1//EN"
 "http://www.w3.org/Graphics/SVG/1.1/DTD/svg11.dtd">
<!-- Generated by graphviz version 2.43.0 (0)
 -->
<!-- Title: src/door_sensor.c Pages: 1 -->
<svg width="303pt" height="137pt"
 viewBox="0.00 0.00 302.50 137.00" xmlns="http://www.w3.org/2000/svg" xmlns:xlink="http://www.w3.org/1999/xlink">
<g id="graph0" class="graph" transform="scale(1 1) rotate(0) translate(4 133)">
<title>src/door_sensor.c</title>
<!-- Node1 -->
<g id="Node000001" class="node">
<title>Node1</title>
<g id="a_Node000001"><a xlink:title="Implementation of the magnetic sensor watcher logic.">
<polygon fill="#999999" stroke="#666666" points="232,-129 131,-129 131,-110 232,-110 232,-129"/>
<text text-anchor="middle" x="181.5" y="-117" font-family="Helvetica,sans-Serif" font-size="10.00">src/door_sensor.c</text>
</a>
</g>
</g>
<!-- Node2 -->
<g id="Node000002" class="node">
<title>Node2</title>
<g id="a_Node000002"><a xlink:href="door__sensor_8h.html" target="_top" xlink:title="Interface for the magnetic contact switch attached to the door.">
<polygon fill="white" stroke="#666666" points="124.5,-74 40.5,-74 40.5,-55 124.5,-55 124.5,-74"/>
<text text-anchor="middle" x="82.5" y="-62" font-family="Helvetica,sans-Serif" font-size="10.00">door_sensor.h</text>
</a>
</g>
</g>
<!-- Node1&#45;&gt;Node2 -->
<g id="edge1_Node000001_Node000002" class="edge">
<title>Node1&#45;&gt;Node2</title>
<g id="a_edge1_Node000001_Node000002"><a xlink:title=" ">
<path fill="none" stroke="#63b8ff" d="M165.59,-109.98C149.95,-101.61 125.84,-88.7 107.62,-78.95"/>
<polygon fill="#63b8ff" stroke="#63b8ff" points="109.16,-75.8 98.7,-74.17 105.86,-81.98 109.16,-75.8"/>
</a>
</g>
</g>
<!-- Node5 -->
<g id="Node000005" class="node">
<title>Node5</title>
<g id="a_Node000005"><a xlink:title=" ">
<polygon fill="#e0e0e0" stroke="#999999" points="220,-74 143,-74 143,-55 220,-55 220,-74"/>
<text text-anchor="middle" x="181.5" y="-62" font-family="Helvetica,sans-Serif" font-size="10.00">sys/syslog.h</text>
</a>
</g>
</g>
<!-- Node1&#45;&gt;Node5 -->
<g id="edge4_Node000001_Node000005" class="edge">
<title>Node1&#45;&gt;Node5</title>
<g id="a_edge4_Node000001_Node000005"><a xlink:title=" ">
<path fill="none" stroke="#63b8ff" d="M181.5,-109.75C181.5,-102.8 181.5,-92.85 181.5,-84.13"/>
<polygon fill="#63b8ff" stroke="#63b8ff" points="185,-84.09 181.5,-74.09 178,-84.09 185,-84.09"/>
</a>
</g>
</g>
<!-- Node6 -->
<g id="Node000006" class="node">
<title>Node6</title>
<g id="a_Node000006"><a xlink:title=" ">
<polygon fill="#e0e0e0" stroke="#999999" points="294.5,-74 238.5,-74 238.5,-55 294.5,-55 294.5,-74"/>
<text text-anchor="middle" x="266.5" y="-62" font-family="Helvetica,sans-Serif" font-size="10.00">stddef.h</text>
</a>
</g>
</g>
<!-- Node1&#45;&gt;Node6 -->
<g id="edge5_Node000001_Node000006" class="edge">
<title>Node1&#45;&gt;Node6</title>
<g id="a_edge5_Node000001_Node000006"><a xlink:title=" ">
<path fill="none" stroke="#63b8ff" d="M195.16,-109.98C208.34,-101.77 228.53,-89.18 244.07,-79.49"/>
<polygon fill="#63b8ff" stroke="#63b8ff" points="245.96,-82.43 252.59,-74.17 242.26,-76.49 245.96,-82.43"/>
</a>
</g>
</g>
<!-- Node3 -->
<g id="Node000003" class="node">
<title>Node3</title>
<g id="a_Node000003"><a xlink:title=" ">
<polygon fill="#e0e0e0" stroke="#999999" points="77,-19 0,-19 0,0 77,0 77,-19"/>
<text text-anchor="middle" x="38.5" y="-7" font-family="Helvetica,sans-Serif" font-size="10.00">linux/input.h</text>
</a>
</g>
</g>
<!-- Node2&#45;&gt;Node3 -->
<g id="edge2_Node000002_Node000003" class="edge">
<title>Node2&#45;&gt;Node3</title>
<g id="a_edge2_Node000002_Node000003"><a xlink:title=" ">
<path fill="none" stroke="#63b8ff" d="M75.23,-54.75C68.96,-47.18 59.71,-36.05 52.07,-26.84"/>
<polygon fill="#63b8ff" stroke="#63b8ff" points="54.71,-24.55 45.63,-19.09 49.33,-29.02 54.71,-24.55"/>
</a>
</g>
</g>
<!-- Node4 -->
<g id="Node000004" class="node">
<title>Node4</title>
<g id="a_Node000004"><a xlink:title=" ">
<polygon fill="#e0e0e0" stroke="#999999" points="157.5,-19 95.5,-19 95.5,0 157.5,0 157.5,-19"/>
<text text-anchor="middle" x="126.5" y="-7" font-family="Helvetica,sans-Serif" font-size="10.00">stdbool.h</text>
</a>
</g>
</g>
<!-- Node2&#45;&gt;Node4 -->
<g id="edge3_Node000002_Node000004" class="edge">
<title>Node2&#45;&gt;Node4</title>
<g id="a_edge3_Node000002_Node000004"><a xlink:title=" ">
<path fill="none" stroke="#63b8ff" d="M89.77,-54.75C96.04,-47.18 105.29,-36.05 112.93,-26.84"/>
<polygon fill="#63b8ff" stroke="#63b8ff" points="115.67,-29.02 119.37,-19.09 110.29,-24.55 115.67,-29.02"/>
</a>
</g>
</g>
</g>
</svg>
