<?xml version="1.0" encoding="UTF-8" standalone="no"?>
<!DOCTYPE svg PUBLIC "-//W3C//DTD SVG 1.1//EN"
 "http://www.w3.org/Graphics/SVG/1.1/DTD/svg11.dtd">
<!-- Generated by graphviz version 2.43.0 (0)
 -->
<!-- Title: include/fsm_types.h Pages: 1 -->
<svg width="371pt" height="137pt"
 viewBox="0.00 0.00 371.00 137.00" xmlns="http://www.w3.org/2000/svg" xmlns:xlink="http://www.w3.org/1999/xlink">
<g id="graph0" class="graph" transform="scale(1 1) rotate(0) translate(4 133)">
<title>include/fsm_types.h</title>
<!-- Node1 -->
<g id="Node000001" class="node">
<title>Node1</title>
<g id="a_Node000001"><a xlink:title="Types definitions and structures for the FSM.">
<polygon fill="#999999" stroke="#666666" points="224,-129 109,-129 109,-110 224,-110 224,-129"/>
<text text-anchor="middle" x="166.5" y="-117" font-family="Helvetica,sans-Serif" font-size="10.00">include/fsm_types.h</text>
</a>
</g>
</g>
<!-- Node2 -->
<g id="Node000002" class="node">
<title>Node2</title>
<g id="a_Node000002"><a xlink:href="fsm_8h.html" target="_top" xlink:title="Finite State Machine for the Door Security System.">
<polygon fill="white" stroke="#666666" points="83,-74 0,-74 0,-55 83,-55 83,-74"/>
<text text-anchor="middle" x="41.5" y="-62" font-family="Helvetica,sans-Serif" font-size="10.00">include/fsm.h</text>
</a>
</g>
</g>
<!-- Node1&#45;&gt;Node2 -->
<g id="edge1_Node000001_Node000002" class="edge">
<title>Node1&#45;&gt;Node2</title>
<g id="a_edge1_Node000001_Node000002"><a xlink:title=" ">
<path fill="none" stroke="#63b8ff" d="M137.09,-106.03C113.97,-96.23 82.37,-82.83 61.95,-74.17"/>
<polygon fill="#63b8ff" stroke="#63b8ff" points="135.84,-109.3 146.42,-109.98 138.58,-102.86 135.84,-109.3"/>
</a>
</g>
</g>
<!-- Node4 -->
<g id="Node000004" class="node">
<title>Node4</title>
<g id="a_Node000004"><a xlink:href="fsm__handlers_8h.html" target="_top" xlink:title="Function prototypes for FSM guards and actions.">
<polygon fill="white" stroke="#666666" points="231.5,-74 101.5,-74 101.5,-55 231.5,-55 231.5,-74"/>
<text text-anchor="middle" x="166.5" y="-62" font-family="Helvetica,sans-Serif" font-size="10.00">include/fsm_handlers.h</text>
</a>
</g>
</g>
<!-- Node1&#45;&gt;Node4 -->
<g id="edge3_Node000001_Node000004" class="edge">
<title>Node1&#45;&gt;Node4</title>
<g id="a_edge3_Node000001_Node000004"><a xlink:title=" ">
<path fill="none" stroke="#63b8ff" d="M166.5,-99.66C166.5,-90.93 166.5,-80.99 166.5,-74.09"/>
<polygon fill="#63b8ff" stroke="#63b8ff" points="163,-99.75 166.5,-109.75 170,-99.75 163,-99.75"/>
</a>
</g>
</g>
<!-- Node5 -->
<g id="Node000005" class="node">
<title>Node5</title>
<g id="a_Node000005"><a xlink:href="fsm__table_8h.html" target="_top" xlink:title="External interface for the FSM transition table.">
<polygon fill="white" stroke="#666666" points="363,-74 250,-74 250,-55 363,-55 363,-74"/>
<text text-anchor="middle" x="306.5" y="-62" font-family="Helvetica,sans-Serif" font-size="10.00">include/fsm_table.h</text>
</a>
</g>
</g>
<!-- Node1&#45;&gt;Node5 -->
<g id="edge4_Node000001_Node000005" class="edge">
<title>Node1&#45;&gt;Node5</title>
<g id="a_edge4_Node000001_Node000005"><a xlink:title=" ">
<path fill="none" stroke="#63b8ff" d="M198.41,-106.42C224.38,-96.59 260.42,-82.95 283.6,-74.17"/>
<polygon fill="#63b8ff" stroke="#63b8ff" points="197.11,-103.17 188.99,-109.98 199.58,-109.72 197.11,-103.17"/>
</a>
</g>
</g>
<!-- Node3 -->
<g id="Node000003" class="node">
<title>Node3</title>
<g id="a_Node000003"><a xlink:href="main_8c.html" target="_top" xlink:title="Main entry point for the Door Security Daemon.">
<polygon fill="white" stroke="#666666" points="75,-19 8,-19 8,0 75,0 75,-19"/>
<text text-anchor="middle" x="41.5" y="-7" font-family="Helvetica,sans-Serif" font-size="10.00">src/main.c</text>
</a>
</g>
</g>
<!-- Node2&#45;&gt;Node3 -->
<g id="edge2_Node000002_Node000003" class="edge">
<title>Node2&#45;&gt;Node3</title>
<g id="a_edge2_Node000002_Node000003"><a xlink:title=" ">
<path fill="none" stroke="#63b8ff" d="M41.5,-44.66C41.5,-35.93 41.5,-25.99 41.5,-19.09"/>
<polygon fill="#63b8ff" stroke="#63b8ff" points="38,-44.75 41.5,-54.75 45,-44.75 38,-44.75"/>
</a>
</g>
</g>
</g>
</svg>
