<?xml version="1.0" encoding="UTF-8" standalone="no"?>
<!DOCTYPE svg PUBLIC "-//W3C//DTD SVG 1.1//EN"
 "http://www.w3.org/Graphics/SVG/1.1/DTD/svg11.dtd">
<!-- Generated by graphviz version 2.43.0 (0)
 -->
<!-- Title: include/keypad_parser.h Pages: 1 -->
<svg width="286pt" height="137pt"
 viewBox="0.00 0.00 285.50 137.00" xmlns="http://www.w3.org/2000/svg" xmlns:xlink="http://www.w3.org/1999/xlink">
<g id="graph0" class="graph" transform="scale(1 1) rotate(0) translate(4 133)">
<title>include/keypad_parser.h</title>
<!-- Node1 -->
<g id="Node000001" class="node">
<title>Node1</title>
<g id="a_Node000001"><a xlink:title="Public API for translating Linux input events to system commands.">
<polygon fill="#999999" stroke="#666666" points="203,-129 69,-129 69,-110 203,-110 203,-129"/>
<text text-anchor="middle" x="136" y="-117" font-family="Helvetica,sans-Serif" font-size="10.00">include/keypad_parser.h</text>
</a>
</g>
</g>
<!-- Node2 -->
<g id="Node000002" class="node">
<title>Node2</title>
<g id="a_Node000002"><a xlink:href="pin__entry_8h.html" target="_top" xlink:title="Logic for collecting and buffering keypad digits into a PIN.">
<polygon fill="white" stroke="#666666" points="108,-74 0,-74 0,-55 108,-55 108,-74"/>
<text text-anchor="middle" x="54" y="-62" font-family="Helvetica,sans-Serif" font-size="10.00">include/pin_entry.h</text>
</a>
</g>
</g>
<!-- Node1&#45;&gt;Node2 -->
<g id="edge1_Node000001_Node000002" class="edge">
<title>Node1&#45;&gt;Node2</title>
<g id="a_edge1_Node000001_Node000002"><a xlink:title=" ">
<path fill="none" stroke="#63b8ff" d="M114.22,-104.42C99.34,-94.81 80.09,-82.37 67.41,-74.17"/>
<polygon fill="#63b8ff" stroke="#63b8ff" points="112.53,-107.5 122.83,-109.98 116.33,-101.62 112.53,-107.5"/>
</a>
</g>
</g>
<!-- Node3 -->
<g id="Node000003" class="node">
<title>Node3</title>
<g id="a_Node000003"><a xlink:href="main_8c.html" target="_top" xlink:title="Main entry point for the Door Security Daemon.">
<polygon fill="white" stroke="#666666" points="128.5,-19 61.5,-19 61.5,0 128.5,0 128.5,-19"/>
<text text-anchor="middle" x="95" y="-7" font-family="Helvetica,sans-Serif" font-size="10.00">src/main.c</text>
</a>
</g>
</g>
<!-- Node1&#45;&gt;Node3 -->
<g id="edge4_Node000001_Node000003" class="edge">
<title>Node1&#45;&gt;Node3</title>
<g id="a_edge4_Node000001_Node000003"><a xlink:title=" ">
<path fill="none" stroke="#63b8ff" d="M131.29,-99.79C127.86,-86.99 122.8,-69.74 117,-55 111.95,-42.17 104.62,-27.99 99.83,-19.17"/>
<polygon fill="#63b8ff" stroke="#63b8ff" points="127.97,-100.92 133.87,-109.72 134.74,-99.16 127.97,-100.92"/>
</a>
</g>
</g>
<!-- Node4 -->
<g id="Node000004" class="node">
<title>Node4</title>
<g id="a_Node000004"><a xlink:href="keypad__parser_8c.html" target="_top" xlink:title="Implementation details for the keypad translation logic.">
<polygon fill="white" stroke="#666666" points="277.5,-74 164.5,-74 164.5,-55 277.5,-55 277.5,-74"/>
<text text-anchor="middle" x="221" y="-62" font-family="Helvetica,sans-Serif" font-size="10.00">src/keypad_parser.c</text>
</a>
</g>
</g>
<!-- Node1&#45;&gt;Node4 -->
<g id="edge3_Node000001_Node000004" class="edge">
<title>Node1&#45;&gt;Node4</title>
<g id="a_edge3_Node000001_Node000004"><a xlink:title=" ">
<path fill="none" stroke="#63b8ff" d="M158.57,-104.42C174,-94.81 193.95,-82.37 207.09,-74.17"/>
<polygon fill="#63b8ff" stroke="#63b8ff" points="156.29,-101.72 149.66,-109.98 159.99,-107.66 156.29,-101.72"/>
</a>
</g>
</g>
<!-- Node2&#45;&gt;Node3 -->
<g id="edge2_Node000002_Node000003" class="edge">
<title>Node2&#45;&gt;Node3</title>
<g id="a_edge2_Node000002_Node000003"><a xlink:title=" ">
<path fill="none" stroke="#63b8ff" d="M67.02,-46.67C74.12,-37.5 82.6,-26.52 88.36,-19.09"/>
<polygon fill="#63b8ff" stroke="#63b8ff" points="64.12,-44.7 60.77,-54.75 69.66,-48.98 64.12,-44.7"/>
</a>
</g>
</g>
</g>
</svg>
