<?xml version="1.0" encoding="UTF-8" standalone="no"?>
<!DOCTYPE svg PUBLIC "-//W3C//DTD SVG 1.1//EN"
 "http://www.w3.org/Graphics/SVG/1.1/DTD/svg11.dtd">
<!-- Generated by graphviz version 2.43.0 (0)
 -->
<!-- Title: src/main.c Pages: 1 -->
<!--zoomable 192 -->

<svg id="main" version="1.1" xmlns="http://www.w3.org/2000/svg" xmlns:xlink="http://www.w3.org/1999/xlink" xml:space="preserve" onload="init(evt)">
<style type="text/css"><![CDATA[
.node, .edge {opacity: 0.7;}
.node.selected, .edge.selected {opacity: 1;}
.edge:hover path { stroke: red; }
.edge:hover polygon { stroke: red; fill: red; }
]]></style>

<defs>
  <circle id="rim" cx="0" cy="0" r="7"/>
  <circle id="rim2" cx="0" cy="0" r="3.5"/>
  <g id="zoomPlus">
    <use xlink:href="#rim" fill="#404040"><set attributeName="fill" to="#808080" begin="zoomplus.mouseover" end="zoomplus.mouseout"/></use>
    <path d="M-4,0h8M0,-4v8" fill="none" stroke="white" stroke-width="1.5" pointer-events="none"/>
  </g>
  <g id="zoomMin">
    <use xlink:href="#rim" fill="#404040"><set attributeName="fill" to="#808080" begin="zoomminus.mouseover" end="zoomminus.mouseout"/></use>
    <path d="M-4,0h8" fill="none" stroke="white" stroke-width="1.5" pointer-events="none"/>
  </g>
  <g id="arrowUp" transform="translate(30 24)">
    <use xlink:href="#rim"/>
    <path pointer-events="none" fill="none" stroke="white" stroke-width="1.5" d="M0,-3.0v7 M-2.5,-0.5L0,-3.0L2.5,-0.5"/>
  </g>
  <g id="arrowRight" transform="rotate(90) translate(36 -43)">
    <use xlink:href="#rim"/>
    <path pointer-events="none" fill="none" stroke="white" stroke-width="1.5" d="M0,-3.0v7 M-2.5,-0.5L0,-3.0L2.5,-0.5"/>
  </g>
  <g id="arrowDown" transform="rotate(180) translate(-30 -48)">
    <use xlink:href="#rim"/>
    <path pointer-events="none" fill="none" stroke="white" stroke-width="1.5" d="M0,-3.0v7 M-2.5,-0.5L0,-3.0L2.5,-0.5"/>
  </g>
  <g id="arrowLeft" transform="rotate(270) translate(-36 17)">
    <use xlink:href="#rim"/>
    <path pointer-events="none" fill="none" stroke="white" stroke-width="1.5" d="M0,-3.0v7 M-2.5,-0.5L0,-3.0L2.5,-0.5"/>
  </g>
  <g id="resetDef">
    <use xlink:href="#rim2" fill="#404040"><set attributeName="fill" to="#808080" begin="reset.mouseover" end="reset.mouseout"/></use>
  </g>
</defs>
<script type="application/ecmascript">
var viewWidth = 1269;
var viewHeight = 192;
var sectionId = 'dynsection-0';
</script>
<script type="application/ecmascript" xlink:href="svg.min.js"/>
<svg id="graph" class="graph">
<g id="viewport">
<title>src/main.c</title>
<!-- Node1 -->
<g id="Node000001" class="node">
<title>Node1</title>
<g id="a_Node000001"><a xlink:title="Main entry point for the Door Security Daemon.">
<polygon fill="#999999" stroke="#666666" points="635,-184 568,-184 568,-165 635,-165 635,-184"/>
<text text-anchor="middle" x="601.5" y="-172" font-family="Helvetica,sans-Serif" font-size="10.00">src/main.c</text>
</a>
</g>
</g>
<!-- Node2 -->
<g id="Node000002" class="node">
<title>Node2</title>
<g id="a_Node000002"><a xlink:title=" ">
<polygon fill="#e0e0e0" stroke="#999999" points="51,-129 0,-129 0,-110 51,-110 51,-129"/>
<text text-anchor="middle" x="25.5" y="-117" font-family="Helvetica,sans-Serif" font-size="10.00">errno.h</text>
</a>
</g>
</g>
<!-- Node1&#45;&gt;Node2 -->
<g id="edge1_Node000001_Node000002" class="edge">
<title>Node1&#45;&gt;Node2</title>
<g id="a_edge1_Node000001_Node000002"><a xlink:title=" ">
<path fill="none" stroke="#63b8ff" d="M567.96,-172.65C484,-170.1 257.91,-160.77 60.97,-128.99"/>
<polygon fill="#63b8ff" stroke="#63b8ff" points="61.46,-125.52 51.03,-127.36 60.33,-132.43 61.46,-125.52"/>
</a>
</g>
</g>
<!-- Node3 -->
<g id="Node000003" class="node">
<title>Node3</title>
<g id="a_Node000003"><a xlink:title=" ">
<polygon fill="#e0e0e0" stroke="#999999" points="116,-129 69,-129 69,-110 116,-110 116,-129"/>
<text text-anchor="middle" x="92.5" y="-117" font-family="Helvetica,sans-Serif" font-size="10.00">fcntl.h</text>
</a>
</g>
</g>
<!-- Node1&#45;&gt;Node3 -->
<g id="edge2_Node000001_Node000003" class="edge">
<title>Node1&#45;&gt;Node3</title>
<g id="a_edge2_Node000001_Node000003"><a xlink:title=" ">
<path fill="none" stroke="#63b8ff" d="M567.99,-172.29C491.26,-169.12 296.88,-158.77 126.09,-129.01"/>
<polygon fill="#63b8ff" stroke="#63b8ff" points="126.62,-125.55 116.17,-127.26 125.4,-132.45 126.62,-125.55"/>
</a>
</g>
</g>
<!-- Node4 -->
<g id="Node000004" class="node">
<title>Node4</title>
<g id="a_Node000004"><a xlink:title=" ">
<polygon fill="#e0e0e0" stroke="#999999" points="189,-129 134,-129 134,-110 189,-110 189,-129"/>
<text text-anchor="middle" x="161.5" y="-117" font-family="Helvetica,sans-Serif" font-size="10.00">signal.h</text>
</a>
</g>
</g>
<!-- Node1&#45;&gt;Node4 -->
<g id="edge3_Node000001_Node000004" class="edge">
<title>Node1&#45;&gt;Node4</title>
<g id="a_edge3_Node000001_Node000004"><a xlink:title=" ">
<path fill="none" stroke="#63b8ff" d="M567.88,-171.11C500.12,-166.01 342.16,-152.7 199.55,-128.98"/>
<polygon fill="#63b8ff" stroke="#63b8ff" points="199.75,-125.46 189.31,-127.25 198.59,-132.37 199.75,-125.46"/>
</a>
</g>
</g>
<!-- Node5 -->
<g id="Node000005" class="node">
<title>Node5</title>
<g id="a_Node000005"><a xlink:title=" ">
<polygon fill="#e0e0e0" stroke="#999999" points="257.5,-129 207.5,-129 207.5,-110 257.5,-110 257.5,-129"/>
<text text-anchor="middle" x="232.5" y="-117" font-family="Helvetica,sans-Serif" font-size="10.00">stdio.h</text>
</a>
</g>
</g>
<!-- Node1&#45;&gt;Node5 -->
<g id="edge4_Node000001_Node000005" class="edge">
<title>Node1&#45;&gt;Node5</title>
<g id="a_edge4_Node000001_Node000005"><a xlink:title=" ">
<path fill="none" stroke="#63b8ff" d="M567.54,-170.27C508.52,-164.38 383.08,-150.64 267.74,-129.04"/>
<polygon fill="#63b8ff" stroke="#63b8ff" points="268.16,-125.56 257.68,-127.13 266.85,-132.44 268.16,-125.56"/>
</a>
</g>
</g>
<!-- Node6 -->
<g id="Node000006" class="node">
<title>Node6</title>
<g id="a_Node000006"><a xlink:title=" ">
<polygon fill="#e0e0e0" stroke="#999999" points="329,-129 276,-129 276,-110 329,-110 329,-129"/>
<text text-anchor="middle" x="302.5" y="-117" font-family="Helvetica,sans-Serif" font-size="10.00">stdlib.h</text>
</a>
</g>
</g>
<!-- Node1&#45;&gt;Node6 -->
<g id="edge5_Node000001_Node000006" class="edge">
<title>Node1&#45;&gt;Node6</title>
<g id="a_edge5_Node000001_Node000006"><a xlink:title=" ">
<path fill="none" stroke="#63b8ff" d="M567.6,-168.58C519.04,-161.35 426.67,-146.97 339.04,-129.21"/>
<polygon fill="#63b8ff" stroke="#63b8ff" points="339.71,-125.77 329.21,-127.19 338.3,-132.63 339.71,-125.77"/>
</a>
</g>
</g>
<!-- Node7 -->
<g id="Node000007" class="node">
<title>Node7</title>
<g id="a_Node000007"><a xlink:title=" ">
<polygon fill="#e0e0e0" stroke="#999999" points="404,-129 347,-129 347,-110 404,-110 404,-129"/>
<text text-anchor="middle" x="375.5" y="-117" font-family="Helvetica,sans-Serif" font-size="10.00">syslog.h</text>
</a>
</g>
</g>
<!-- Node1&#45;&gt;Node7 -->
<g id="edge6_Node000001_Node000007" class="edge">
<title>Node1&#45;&gt;Node7</title>
<g id="a_edge6_Node000001_Node000007"><a xlink:title=" ">
<path fill="none" stroke="#63b8ff" d="M567.67,-165.57C526.51,-155.91 457.21,-139.66 414.04,-129.54"/>
<polygon fill="#63b8ff" stroke="#63b8ff" points="414.72,-126.1 404.18,-127.23 413.12,-132.92 414.72,-126.1"/>
</a>
</g>
</g>
<!-- Node8 -->
<g id="Node000008" class="node">
<title>Node8</title>
<g id="a_Node000008"><a xlink:title=" ">
<polygon fill="#e0e0e0" stroke="#999999" points="491,-129 422,-129 422,-110 491,-110 491,-129"/>
<text text-anchor="middle" x="456.5" y="-117" font-family="Helvetica,sans-Serif" font-size="10.00">sys/epoll.h</text>
</a>
</g>
</g>
<!-- Node1&#45;&gt;Node8 -->
<g id="edge7_Node000001_Node000008" class="edge">
<title>Node1&#45;&gt;Node8</title>
<g id="a_edge7_Node000001_Node000008"><a xlink:title=" ">
<path fill="none" stroke="#63b8ff" d="M578.2,-164.98C554.25,-156.23 516.72,-142.51 489.67,-132.62"/>
<polygon fill="#63b8ff" stroke="#63b8ff" points="490.81,-129.32 480.22,-129.17 488.41,-135.89 490.81,-129.32"/>
</a>
</g>
</g>
<!-- Node9 -->
<g id="Node000009" class="node">
<title>Node9</title>
<g id="a_Node000009"><a xlink:title=" ">
<polygon fill="#e0e0e0" stroke="#999999" points="593.5,-129 509.5,-129 509.5,-110 593.5,-110 593.5,-129"/>
<text text-anchor="middle" x="551.5" y="-117" font-family="Helvetica,sans-Serif" font-size="10.00">sys/signalfd.h</text>
</a>
</g>
</g>
<!-- Node1&#45;&gt;Node9 -->
<g id="edge8_Node000001_Node000009" class="edge">
<title>Node1&#45;&gt;Node9</title>
<g id="a_edge8_Node000001_Node000009"><a xlink:title=" ">
<path fill="none" stroke="#63b8ff" d="M593.24,-164.75C586.04,-157.11 575.39,-145.82 566.65,-136.56"/>
<polygon fill="#63b8ff" stroke="#63b8ff" points="569.01,-133.96 559.6,-129.09 563.92,-138.76 569.01,-133.96"/>
</a>
</g>
</g>
<!-- Node10 -->
<g id="Node000010" class="node">
<title>Node10</title>
<g id="a_Node000010"><a xlink:title=" ">
<polygon fill="#e0e0e0" stroke="#999999" points="693,-129 612,-129 612,-110 693,-110 693,-129"/>
<text text-anchor="middle" x="652.5" y="-117" font-family="Helvetica,sans-Serif" font-size="10.00">sys/timerfd.h</text>
</a>
</g>
</g>
<!-- Node1&#45;&gt;Node10 -->
<g id="edge9_Node000001_Node000010" class="edge">
<title>Node1&#45;&gt;Node10</title>
<g id="a_edge9_Node000001_Node000010"><a xlink:title=" ">
<path fill="none" stroke="#63b8ff" d="M609.92,-164.75C617.27,-157.11 628.13,-145.82 637.04,-136.56"/>
<polygon fill="#63b8ff" stroke="#63b8ff" points="639.82,-138.72 644.24,-129.09 634.78,-133.87 639.82,-138.72"/>
</a>
</g>
</g>
<!-- Node11 -->
<g id="Node000011" class="node">
<title>Node11</title>
<g id="a_Node000011"><a xlink:title=" ">
<polygon fill="#e0e0e0" stroke="#999999" points="767.5,-129 711.5,-129 711.5,-110 767.5,-110 767.5,-129"/>
<text text-anchor="middle" x="739.5" y="-117" font-family="Helvetica,sans-Serif" font-size="10.00">unistd.h</text>
</a>
</g>
</g>
<!-- Node1&#45;&gt;Node11 -->
<g id="edge10_Node000001_Node000011" class="edge">
<title>Node1&#45;&gt;Node11</title>
<g id="a_edge10_Node000001_Node000011"><a xlink:title=" ">
<path fill="none" stroke="#63b8ff" d="M623.67,-164.98C646.27,-156.3 681.56,-142.75 707.25,-132.88"/>
<polygon fill="#63b8ff" stroke="#63b8ff" points="708.84,-136.02 716.92,-129.17 706.33,-129.49 708.84,-136.02"/>
</a>
</g>
</g>
<!-- Node12 -->
<g id="Node000012" class="node">
<title>Node12</title>
<g id="a_Node000012"><a xlink:href="door__sensor_8h.html" target="_top" xlink:title="Interface for the magnetic contact switch attached to the door.">
<polygon fill="white" stroke="#666666" points="963.5,-74 879.5,-74 879.5,-55 963.5,-55 963.5,-74"/>
<text text-anchor="middle" x="921.5" y="-62" font-family="Helvetica,sans-Serif" font-size="10.00">door_sensor.h</text>
</a>
</g>
</g>
<!-- Node1&#45;&gt;Node12 -->
<g id="edge11_Node000001_Node000012" class="edge">
<title>Node1&#45;&gt;Node12</title>
<g id="a_edge11_Node000001_Node000012"><a xlink:title=" ">
<path fill="none" stroke="#63b8ff" d="M635.03,-172.95C704.92,-171.11 863.01,-163.18 902.5,-129 915.27,-117.95 919.64,-98.7 921.05,-84.28"/>
<polygon fill="#63b8ff" stroke="#63b8ff" points="924.56,-84.19 921.65,-74.01 917.57,-83.79 924.56,-84.19"/>
</a>
</g>
</g>
<!-- Node15 -->
<g id="Node000015" class="node">
<title>Node15</title>
<g id="a_Node000015"><a xlink:href="pin__entry_8h.html" target="_top" xlink:title="Logic for collecting and buffering keypad digits into a PIN.">
<polygon fill="white" stroke="#666666" points="893.5,-129 823.5,-129 823.5,-110 893.5,-110 893.5,-129"/>
<text text-anchor="middle" x="858.5" y="-117" font-family="Helvetica,sans-Serif" font-size="10.00">pin_entry.h</text>
</a>
</g>
</g>
<!-- Node1&#45;&gt;Node15 -->
<g id="edge14_Node000001_Node000015" class="edge">
<title>Node1&#45;&gt;Node15</title>
<g id="a_edge14_Node000001_Node000015"><a xlink:title=" ">
<path fill="none" stroke="#63b8ff" d="M635.1,-166.57C680.67,-157.17 762.22,-140.36 813.17,-129.85"/>
<polygon fill="#63b8ff" stroke="#63b8ff" points="814.16,-133.22 823.25,-127.77 812.74,-126.36 814.16,-133.22"/>
</a>
</g>
</g>
<!-- Node16 -->
<g id="Node000016" class="node">
<title>Node16</title>
<g id="a_Node000016"><a xlink:href="keypad__parser_8h.html" target="_top" xlink:title="Public API for translating Linux input events to system commands.">
<polygon fill="white" stroke="#666666" points="861.5,-74 765.5,-74 765.5,-55 861.5,-55 861.5,-74"/>
<text text-anchor="middle" x="813.5" y="-62" font-family="Helvetica,sans-Serif" font-size="10.00">keypad_parser.h</text>
</a>
</g>
</g>
<!-- Node1&#45;&gt;Node16 -->
<g id="edge17_Node000001_Node000016" class="edge">
<title>Node1&#45;&gt;Node16</title>
<g id="a_edge17_Node000001_Node000016"><a xlink:title=" ">
<path fill="none" stroke="#63b8ff" d="M635.09,-172.53C672.96,-169.85 734.7,-160.52 776.5,-129 791.58,-117.63 801.6,-98.17 807.36,-83.78"/>
<polygon fill="#63b8ff" stroke="#63b8ff" points="810.65,-84.98 810.81,-74.39 804.08,-82.57 810.65,-84.98"/>
</a>
</g>
</g>
<!-- Node17 -->
<g id="Node000017" class="node">
<title>Node17</title>
<g id="a_Node000017"><a xlink:href="input__utils_8h.html" target="_top" xlink:title="Utilities for discovering and identifying Linux input devices.">
<polygon fill="white" stroke="#666666" points="1027,-129 950,-129 950,-110 1027,-110 1027,-129"/>
<text text-anchor="middle" x="988.5" y="-117" font-family="Helvetica,sans-Serif" font-size="10.00">input_utils.h</text>
</a>
</g>
</g>
<!-- Node1&#45;&gt;Node17 -->
<g id="edge18_Node000001_Node000017" class="edge">
<title>Node1&#45;&gt;Node17</title>
<g id="a_edge18_Node000001_Node000017"><a xlink:title=" ">
<path fill="none" stroke="#63b8ff" d="M635.2,-169.31C695.5,-161.75 825.82,-145.1 935.5,-129 936.8,-128.81 938.11,-128.61 939.44,-128.42"/>
<polygon fill="#63b8ff" stroke="#63b8ff" points="940.38,-131.81 949.73,-126.84 939.32,-124.89 940.38,-131.81"/>
</a>
</g>
</g>
<!-- Node18 -->
<g id="Node000018" class="node">
<title>Node18</title>
<g id="a_Node000018"><a xlink:href="lock_8h.html" target="_top" xlink:title="Hardware abstraction layer for servo&#45;controlled door lock.">
<polygon fill="white" stroke="#666666" points="1027.5,-74 981.5,-74 981.5,-55 1027.5,-55 1027.5,-74"/>
<text text-anchor="middle" x="1004.5" y="-62" font-family="Helvetica,sans-Serif" font-size="10.00">lock.h</text>
</a>
</g>
</g>
<!-- Node1&#45;&gt;Node18 -->
<g id="edge19_Node000001_Node000018" class="edge">
<title>Node1&#45;&gt;Node18</title>
<g id="a_edge19_Node000001_Node000018"><a xlink:title=" ">
<path fill="none" stroke="#63b8ff" d="M635.22,-172.59C732.57,-169.6 1008.79,-158.59 1035.5,-129 1048.01,-115.15 1034.7,-95.33 1021.84,-81.53"/>
<polygon fill="#63b8ff" stroke="#63b8ff" points="1024.06,-78.8 1014.52,-74.2 1019.11,-83.75 1024.06,-78.8"/>
</a>
</g>
</g>
<!-- Node19 -->
<g id="Node000019" class="node">
<title>Node19</title>
<g id="a_Node000019"><a xlink:href="fsm_8h.html" target="_top" xlink:title="Finite State Machine for the Door Security System.">
<polygon fill="white" stroke="#666666" points="1158.5,-129 1114.5,-129 1114.5,-110 1158.5,-110 1158.5,-129"/>
<text text-anchor="middle" x="1136.5" y="-117" font-family="Helvetica,sans-Serif" font-size="10.00">fsm.h</text>
</a>
</g>
</g>
<!-- Node1&#45;&gt;Node19 -->
<g id="edge21_Node000001_Node000019" class="edge">
<title>Node1&#45;&gt;Node19</title>
<g id="a_edge21_Node000001_Node000019"><a xlink:title=" ">
<path fill="none" stroke="#63b8ff" d="M635.02,-170.68C711.9,-164.12 906.86,-147.04 1069.5,-129 1080.89,-127.74 1093.35,-126.2 1104.41,-124.78"/>
<polygon fill="#63b8ff" stroke="#63b8ff" points="1105.03,-128.23 1114.49,-123.47 1104.12,-121.29 1105.03,-128.23"/>
</a>
</g>
</g>
<!-- Node13 -->
<g id="Node000013" class="node">
<title>Node13</title>
<g id="a_Node000013"><a xlink:title=" ">
<polygon fill="#e0e0e0" stroke="#999999" points="904,-19 827,-19 827,0 904,0 904,-19"/>
<text text-anchor="middle" x="865.5" y="-7" font-family="Helvetica,sans-Serif" font-size="10.00">linux/input.h</text>
</a>
</g>
</g>
<!-- Node12&#45;&gt;Node13 -->
<g id="edge12_Node000012_Node000013" class="edge">
<title>Node12&#45;&gt;Node13</title>
<g id="a_edge12_Node000012_Node000013"><a xlink:title=" ">
<path fill="none" stroke="#63b8ff" d="M912.5,-54.98C904.31,-47.23 891.99,-35.58 882.03,-26.14"/>
<polygon fill="#63b8ff" stroke="#63b8ff" points="884.33,-23.5 874.66,-19.17 879.52,-28.59 884.33,-23.5"/>
</a>
</g>
</g>
<!-- Node14 -->
<g id="Node000014" class="node">
<title>Node14</title>
<g id="a_Node000014"><a xlink:title=" ">
<polygon fill="#e0e0e0" stroke="#999999" points="1035.5,-19 973.5,-19 973.5,0 1035.5,0 1035.5,-19"/>
<text text-anchor="middle" x="1004.5" y="-7" font-family="Helvetica,sans-Serif" font-size="10.00">stdbool.h</text>
</a>
</g>
</g>
<!-- Node12&#45;&gt;Node14 -->
<g id="edge13_Node000012_Node000014" class="edge">
<title>Node12&#45;&gt;Node14</title>
<g id="a_edge13_Node000012_Node000014"><a xlink:title=" ">
<path fill="none" stroke="#63b8ff" d="M934.84,-54.98C947.59,-46.84 967.05,-34.41 982.17,-24.76"/>
<polygon fill="#63b8ff" stroke="#63b8ff" points="984.38,-27.5 990.92,-19.17 980.61,-21.6 984.38,-27.5"/>
</a>
</g>
</g>
<!-- Node15&#45;&gt;Node16 -->
<g id="edge15_Node000015_Node000016" class="edge">
<title>Node15&#45;&gt;Node16</title>
<g id="a_edge15_Node000015_Node000016"><a xlink:title=" ">
<path fill="none" stroke="#63b8ff" d="M851.07,-109.75C844.65,-102.18 835.19,-91.05 827.38,-81.84"/>
<polygon fill="#63b8ff" stroke="#63b8ff" points="829.93,-79.45 820.79,-74.09 824.6,-83.98 829.93,-79.45"/>
</a>
</g>
</g>
<!-- Node16&#45;&gt;Node13 -->
<g id="edge16_Node000016_Node000013" class="edge">
<title>Node16&#45;&gt;Node13</title>
<g id="a_edge16_Node000016_Node000013"><a xlink:title=" ">
<path fill="none" stroke="#63b8ff" d="M822.09,-54.75C829.66,-47.03 840.88,-35.6 850.01,-26.28"/>
<polygon fill="#63b8ff" stroke="#63b8ff" points="852.57,-28.68 857.07,-19.09 847.57,-23.78 852.57,-28.68"/>
</a>
</g>
</g>
<!-- Node18&#45;&gt;Node14 -->
<g id="edge20_Node000018_Node000014" class="edge">
<title>Node18&#45;&gt;Node14</title>
<g id="a_edge20_Node000018_Node000014"><a xlink:title=" ">
<path fill="none" stroke="#63b8ff" d="M1004.5,-54.75C1004.5,-47.8 1004.5,-37.85 1004.5,-29.13"/>
<polygon fill="#63b8ff" stroke="#63b8ff" points="1008,-29.09 1004.5,-19.09 1001,-29.09 1008,-29.09"/>
</a>
</g>
</g>
<!-- Node20 -->
<g id="Node000020" class="node">
<title>Node20</title>
<g id="a_Node000020"><a xlink:href="fsm__types_8h.html" target="_top" xlink:title="Types definitions and structures for the FSM.">
<polygon fill="white" stroke="#666666" points="1123,-74 1046,-74 1046,-55 1123,-55 1123,-74"/>
<text text-anchor="middle" x="1084.5" y="-62" font-family="Helvetica,sans-Serif" font-size="10.00">fsm_types.h</text>
</a>
</g>
</g>
<!-- Node19&#45;&gt;Node20 -->
<g id="edge22_Node000019_Node000020" class="edge">
<title>Node19&#45;&gt;Node20</title>
<g id="a_edge22_Node000019_Node000020"><a xlink:title=" ">
<path fill="none" stroke="#63b8ff" d="M1127.91,-109.75C1120.34,-102.03 1109.12,-90.6 1099.99,-81.28"/>
<polygon fill="#63b8ff" stroke="#63b8ff" points="1102.43,-78.78 1092.93,-74.09 1097.43,-83.68 1102.43,-78.78"/>
</a>
</g>
</g>
<!-- Node21 -->
<g id="Node000021" class="node">
<title>Node21</title>
<g id="a_Node000021"><a xlink:title=" ">
<polygon fill="#e0e0e0" stroke="#999999" points="1194,-74 1141,-74 1141,-55 1194,-55 1194,-74"/>
<text text-anchor="middle" x="1167.5" y="-62" font-family="Helvetica,sans-Serif" font-size="10.00">stdint.h</text>
</a>
</g>
</g>
<!-- Node19&#45;&gt;Node21 -->
<g id="edge24_Node000019_Node000021" class="edge">
<title>Node19&#45;&gt;Node21</title>
<g id="a_edge24_Node000019_Node000021"><a xlink:title=" ">
<path fill="none" stroke="#63b8ff" d="M1141.62,-109.75C1145.86,-102.49 1152.03,-91.95 1157.28,-82.98"/>
<polygon fill="#63b8ff" stroke="#63b8ff" points="1160.45,-84.49 1162.48,-74.09 1154.41,-80.95 1160.45,-84.49"/>
</a>
</g>
</g>
<!-- Node22 -->
<g id="Node000022" class="node">
<title>Node22</title>
<g id="a_Node000022"><a xlink:title=" ">
<polygon fill="#e0e0e0" stroke="#999999" points="1260.5,-74 1212.5,-74 1212.5,-55 1260.5,-55 1260.5,-74"/>
<text text-anchor="middle" x="1236.5" y="-62" font-family="Helvetica,sans-Serif" font-size="10.00">time.h</text>
</a>
</g>
</g>
<!-- Node19&#45;&gt;Node22 -->
<g id="edge25_Node000019_Node000022" class="edge">
<title>Node19&#45;&gt;Node22</title>
<g id="a_edge25_Node000019_Node000022"><a xlink:title=" ">
<path fill="none" stroke="#63b8ff" d="M1152.57,-109.98C1168.36,-101.61 1192.72,-88.7 1211.13,-78.95"/>
<polygon fill="#63b8ff" stroke="#63b8ff" points="1212.94,-81.95 1220.14,-74.17 1209.67,-75.76 1212.94,-81.95"/>
</a>
</g>
</g>
<!-- Node20&#45;&gt;Node14 -->
<g id="edge23_Node000020_Node000014" class="edge">
<title>Node20&#45;&gt;Node14</title>
<g id="a_edge23_Node000020_Node000014"><a xlink:title=" ">
<path fill="none" stroke="#63b8ff" d="M1071.65,-54.98C1059.36,-46.84 1040.59,-34.41 1026.02,-24.76"/>
<polygon fill="#63b8ff" stroke="#63b8ff" points="1027.86,-21.78 1017.59,-19.17 1023.99,-27.61 1027.86,-21.78"/>
</a>
</g>
</g>
</g>
</svg>

<g id="navigator" transform="translate(0 0)" fill="#404254">
  <rect fill="#f2f5e9" fill-opacity="0.5" stroke="#606060" stroke-width=".5" x="0" y="0" width="60" height="60"/>
  <use id="zoomplus" xlink:href="#zoomPlus" x="17" y="9" onmousedown="handleZoom(evt,'in')"/>
  <use id="zoomminus" xlink:href="#zoomMin" x="42" y="9" onmousedown="handleZoom(evt,'out')"/>
  <use id="reset" xlink:href="#resetDef" x="30" y="36" onmousedown="handleReset()"/>
   <use id="arrowup" xlink:href="#arrowUp" x="0" y="0" onmousedown="handlePan(0,-1)"/>
  <use id="arrowright" xlink:href="#arrowRight" x="0" y="0" onmousedown="handlePan(1,0)"/>
  <use id="arrowdown" xlink:href="#arrowDown" x="0" y="0" onmousedown="handlePan(0,1)"/>
  <use id="arrowleft" xlink:href="#arrowLeft" x="0" y="0" onmousedown="handlePan(-1,0)"/>
</g>
<svg viewBox="0 0 15 15" width="100%" height="30px" preserveAspectRatio="xMaxYMin meet">
 <g id="arrow_out" transform="scale(0.3 0.3)">
  <a xlink:href="main_8c__incl_org.svg" target="_base">
   <rect id="button" ry="5" rx="5" y="6" x="6" height="38" width="38"
        fill="#f2f5e9" fill-opacity="0.5" stroke="#606060" stroke-width="1.0"/>
   <path id="arrow"
     d="M 11.500037,31.436501 C 11.940474,20.09759 22.043105,11.32322 32.158766,21.979434 L 37.068811,17.246167 C 37.068811,17.246167 37.088388,32 37.088388,32 L 22.160133,31.978069 C 22.160133,31.978069 26.997745,27.140456 26.997745,27.140456 C 18.528582,18.264221 13.291696,25.230495 11.500037,31.436501 z"
     style="fill:#404040;"/>
  </a>
 </g>
</svg>

<style type='text/css'>
<![CDATA[
[data-mouse-over-selected='false'] { opacity: 0.7; }
[data-mouse-over-selected='true']  { opacity: 1.0; }
]]>
</style>
<script type="application/ecmascript"><![CDATA[
document.addEventListener('DOMContentLoaded', (event) => {
  highlightEdges();
  highlightAdjacentNodes();
});
]]></script>
</svg>
